<svg width="260" height="456" viewBox="0 0 260 456" fill="none" xmlns="http://www.w3.org/2000/svg">
<rect width="260" height="456" rx="130" fill="#D3F898"/>
<path d="M80.7988 133.439C78.291 133.439 76.1172 132.906 74.2773 131.84C72.4492 130.773 71.0371 129.262 70.041 127.305C69.0566 125.336 68.5645 123.01 68.5645 120.326V120.291C68.5645 117.596 69.0625 115.27 70.0586 113.312C71.0547 111.355 72.4668 109.85 74.2949 108.795C76.1348 107.729 78.3027 107.195 80.7988 107.195C83.3066 107.195 85.4746 107.729 87.3027 108.795C89.1309 109.861 90.543 111.373 91.5391 113.33C92.5352 115.275 93.0332 117.596 93.0332 120.291V120.326C93.0332 123.01 92.5352 125.336 91.5391 127.305C90.543 129.262 89.1309 130.773 87.3027 131.84C85.4863 132.906 83.3184 133.439 80.7988 133.439ZM80.7988 128.939C82.2051 128.939 83.418 128.588 84.4375 127.885C85.457 127.17 86.2422 126.168 86.793 124.879C87.3438 123.59 87.6191 122.072 87.6191 120.326V120.291C87.6191 118.521 87.3379 116.998 86.7754 115.721C86.2246 114.432 85.4336 113.441 84.4023 112.75C83.3828 112.047 82.1816 111.695 80.7988 111.695C79.416 111.695 78.209 112.041 77.1777 112.732C76.1582 113.424 75.3672 114.414 74.8047 115.703C74.2539 116.98 73.9785 118.51 73.9785 120.291V120.326C73.9785 122.084 74.2539 123.607 74.8047 124.896C75.3672 126.186 76.1582 127.182 77.1777 127.885C78.1973 128.588 79.4043 128.939 80.7988 128.939ZM100.996 133L94.4746 114.156H99.959L103.896 128.465H104.002L107.887 114.156H113.248L106.779 133H100.996ZM122.951 133.387C121.029 133.387 119.377 132.994 117.994 132.209C116.611 131.412 115.545 130.281 114.795 128.816C114.057 127.352 113.688 125.617 113.688 123.613V123.596C113.688 121.592 114.057 119.857 114.795 118.393C115.545 116.916 116.594 115.779 117.941 114.982C119.301 114.174 120.9 113.77 122.74 113.77C124.58 113.77 126.168 114.162 127.504 114.947C128.852 115.721 129.889 116.816 130.615 118.234C131.354 119.652 131.723 121.311 131.723 123.209V124.791H116.201V121.557H129.297L126.854 124.58V122.611C126.854 121.51 126.684 120.59 126.344 119.852C126.004 119.102 125.529 118.539 124.92 118.164C124.322 117.789 123.625 117.602 122.828 117.602C122.031 117.602 121.322 117.795 120.701 118.182C120.092 118.568 119.611 119.137 119.26 119.887C118.92 120.625 118.75 121.533 118.75 122.611V124.598C118.75 125.641 118.92 126.531 119.26 127.27C119.611 128.008 120.109 128.576 120.754 128.975C121.398 129.361 122.166 129.555 123.057 129.555C123.76 129.555 124.369 129.443 124.885 129.221C125.4 128.998 125.822 128.717 126.15 128.377C126.479 128.037 126.701 127.691 126.818 127.34L126.854 127.234H131.564L131.512 127.428C131.371 128.119 131.096 128.816 130.686 129.52C130.275 130.223 129.719 130.867 129.016 131.453C128.324 132.039 127.475 132.508 126.467 132.859C125.471 133.211 124.299 133.387 122.951 133.387ZM134.377 133V114.156H139.51V117.443H139.615C139.896 116.283 140.406 115.381 141.145 114.736C141.883 114.092 142.803 113.77 143.904 113.77C144.186 113.77 144.455 113.787 144.713 113.822C144.971 113.857 145.193 113.904 145.381 113.963V118.48C145.17 118.398 144.9 118.334 144.572 118.287C144.244 118.229 143.893 118.199 143.518 118.199C142.674 118.199 141.953 118.363 141.355 118.691C140.758 119.02 140.301 119.5 139.984 120.133C139.668 120.766 139.51 121.539 139.51 122.453V133H134.377ZM161.096 133V112.504H160.99L154.521 116.898V112.188L161.078 107.635H166.352V133H161.096ZM181.785 133.439C179.945 133.439 178.334 133.111 176.951 132.455C175.568 131.799 174.473 130.908 173.664 129.783C172.855 128.658 172.398 127.393 172.293 125.986L172.275 125.723H177.18L177.215 125.846C177.344 126.479 177.613 127.053 178.023 127.568C178.445 128.084 178.979 128.494 179.623 128.799C180.268 129.092 180.994 129.238 181.803 129.238C182.729 129.238 183.543 129.045 184.246 128.658C184.961 128.26 185.518 127.715 185.916 127.023C186.326 126.332 186.531 125.535 186.531 124.633V124.598C186.531 123.707 186.326 122.922 185.916 122.242C185.518 121.551 184.961 121.012 184.246 120.625C183.543 120.238 182.734 120.045 181.82 120.045C181.176 120.045 180.578 120.139 180.027 120.326C179.477 120.502 178.984 120.766 178.551 121.117C178.305 121.316 178.076 121.533 177.865 121.768C177.654 122.002 177.479 122.254 177.338 122.523H172.715L173.875 107.635H190.064V111.854H178.094L177.479 118.99H177.584C178.111 118.135 178.873 117.467 179.869 116.986C180.865 116.494 182.008 116.248 183.297 116.248C184.914 116.248 186.344 116.605 187.586 117.32C188.828 118.023 189.807 118.996 190.521 120.238C191.236 121.48 191.594 122.898 191.594 124.492V124.527C191.594 126.297 191.178 127.85 190.346 129.186C189.525 130.521 188.377 131.564 186.9 132.314C185.424 133.064 183.719 133.439 181.785 133.439ZM78.0391 181V162.156H83.1719V165.32H83.2773C83.6641 164.242 84.3203 163.381 85.2461 162.736C86.1836 162.092 87.2852 161.77 88.5508 161.77C89.4297 161.77 90.2207 161.922 90.9238 162.227C91.627 162.531 92.2188 162.971 92.6992 163.545C93.1914 164.119 93.5371 164.822 93.7363 165.654H93.8418C94.123 164.857 94.5449 164.172 95.1074 163.598C95.6816 163.012 96.3555 162.561 97.1289 162.244C97.9141 161.928 98.7695 161.77 99.6953 161.77C100.926 161.77 102.004 162.033 102.93 162.561C103.855 163.088 104.576 163.826 105.092 164.775C105.607 165.725 105.865 166.838 105.865 168.115V181H100.732V169.398C100.732 168.309 100.469 167.477 99.9414 166.902C99.4141 166.316 98.6523 166.023 97.6562 166.023C97.0117 166.023 96.4434 166.17 95.9512 166.463C95.4707 166.756 95.0957 167.166 94.8262 167.693C94.5566 168.221 94.4219 168.836 94.4219 169.539V181H89.4824V169.24C89.4824 168.221 89.2129 167.43 88.6738 166.867C88.1348 166.305 87.3906 166.023 86.4414 166.023C85.7969 166.023 85.2285 166.176 84.7363 166.48C84.2441 166.785 83.8574 167.207 83.5762 167.746C83.3066 168.285 83.1719 168.912 83.1719 169.627V181H78.0391ZM109.223 181V162.156H114.355V181H109.223ZM111.789 159.73C111.016 159.73 110.365 159.467 109.838 158.939C109.311 158.412 109.047 157.785 109.047 157.059C109.047 156.32 109.311 155.693 109.838 155.178C110.365 154.65 111.016 154.387 111.789 154.387C112.562 154.387 113.213 154.65 113.74 155.178C114.268 155.693 114.531 156.32 114.531 157.059C114.531 157.785 114.268 158.412 113.74 158.939C113.213 159.467 112.562 159.73 111.789 159.73ZM117.924 181V155.635H123.057V181H117.924ZM126.643 181V155.635H131.775V181H126.643ZM135.344 181V162.156H140.477V181H135.344ZM137.91 159.73C137.137 159.73 136.486 159.467 135.959 158.939C135.432 158.412 135.168 157.785 135.168 157.059C135.168 156.32 135.432 155.693 135.959 155.178C136.486 154.65 137.137 154.387 137.91 154.387C138.684 154.387 139.334 154.65 139.861 155.178C140.389 155.693 140.652 156.32 140.652 157.059C140.652 157.785 140.389 158.412 139.861 158.939C139.334 159.467 138.684 159.73 137.91 159.73ZM152.57 181.387C150.66 181.387 149.008 180.994 147.613 180.209C146.219 179.424 145.141 178.299 144.379 176.834C143.617 175.369 143.236 173.617 143.236 171.578V171.543C143.236 169.516 143.623 167.775 144.396 166.322C145.17 164.857 146.254 163.732 147.648 162.947C149.043 162.162 150.678 161.77 152.553 161.77C154.439 161.77 156.08 162.162 157.475 162.947C158.881 163.721 159.971 164.84 160.744 166.305C161.518 167.758 161.904 169.504 161.904 171.543V171.578C161.904 173.629 161.518 175.387 160.744 176.852C159.982 178.316 158.904 179.441 157.51 180.227C156.115 181 154.469 181.387 152.57 181.387ZM152.588 177.361C153.42 177.361 154.141 177.139 154.75 176.693C155.371 176.236 155.846 175.58 156.174 174.725C156.514 173.857 156.684 172.809 156.684 171.578V171.543C156.684 170.324 156.514 169.287 156.174 168.432C155.834 167.576 155.354 166.926 154.732 166.48C154.111 166.023 153.385 165.795 152.553 165.795C151.732 165.795 151.012 166.023 150.391 166.48C149.781 166.926 149.307 167.576 148.967 168.432C148.627 169.287 148.457 170.324 148.457 171.543V171.578C148.457 172.809 148.621 173.857 148.949 174.725C149.289 175.58 149.77 176.236 150.391 176.693C151.012 177.139 151.744 177.361 152.588 177.361ZM164.559 181V162.156H169.691V165.25H169.797C170.289 164.172 171.016 163.322 171.977 162.701C172.938 162.08 174.127 161.77 175.545 161.77C177.619 161.77 179.219 162.396 180.344 163.65C181.48 164.893 182.049 166.621 182.049 168.836V181H176.916V169.891C176.916 168.66 176.623 167.711 176.037 167.043C175.463 166.363 174.602 166.023 173.453 166.023C172.691 166.023 172.029 166.199 171.467 166.551C170.904 166.891 170.465 167.371 170.148 167.992C169.844 168.613 169.691 169.34 169.691 170.172V181H164.559Z" fill="#0A0E02"/>
<path d="M62.957 225V212.602H65.5117V214.512H65.5938C65.8594 213.863 66.2891 213.344 66.8828 212.953C67.4844 212.555 68.1914 212.355 69.0039 212.355C69.5742 212.355 70.0859 212.453 70.5391 212.648C71 212.836 71.3945 213.109 71.7227 213.469C72.0508 213.82 72.2969 214.254 72.4609 214.77H72.543C72.7539 214.27 73.0469 213.84 73.4219 213.48C73.8047 213.121 74.2461 212.844 74.7461 212.648C75.2539 212.453 75.8008 212.355 76.3867 212.355C77.207 212.355 77.918 212.527 78.5195 212.871C79.1289 213.207 79.5977 213.684 79.9258 214.301C80.2617 214.91 80.4297 215.633 80.4297 216.469V225H77.875V217.078C77.875 216.266 77.6719 215.641 77.2656 215.203C76.8594 214.766 76.2734 214.547 75.5078 214.547C75 214.547 74.5508 214.664 74.1602 214.898C73.7773 215.125 73.4766 215.441 73.2578 215.848C73.0469 216.246 72.9414 216.707 72.9414 217.23V225H70.4336V216.891C70.4336 216.164 70.2227 215.594 69.8008 215.18C69.3789 214.758 68.8086 214.547 68.0898 214.547C67.5898 214.547 67.1445 214.668 66.7539 214.91C66.3711 215.152 66.0664 215.484 65.8398 215.906C65.6211 216.328 65.5117 216.809 65.5117 217.348V225H62.957ZM83.1602 225V212.602H85.7148V225H83.1602ZM84.4375 210.633C84.0234 210.633 83.668 210.488 83.3711 210.199C83.082 209.91 82.9375 209.562 82.9375 209.156C82.9375 208.742 83.082 208.391 83.3711 208.102C83.668 207.812 84.0234 207.668 84.4375 207.668C84.8594 207.668 85.2148 207.812 85.5039 208.102C85.793 208.391 85.9375 208.742 85.9375 209.156C85.9375 209.562 85.793 209.91 85.5039 210.199C85.2148 210.488 84.8594 210.633 84.4375 210.633ZM93.1211 225.234C92.0742 225.234 91.1602 224.973 90.3789 224.449C89.6055 223.926 89.0039 223.184 88.5742 222.223C88.1523 221.254 87.9414 220.113 87.9414 218.801V218.789C87.9414 217.469 88.1562 216.328 88.5859 215.367C89.0156 214.406 89.6172 213.668 90.3906 213.152C91.1641 212.629 92.0664 212.367 93.0977 212.367C93.9727 212.367 94.75 212.574 95.4297 212.988C96.1094 213.402 96.6328 213.965 97 214.676H97.082V207.938H99.625V225H97.082V222.926H97C96.6328 223.645 96.1172 224.211 95.4531 224.625C94.7891 225.031 94.0117 225.234 93.1211 225.234ZM93.8008 223.055C94.457 223.055 95.0312 222.883 95.5234 222.539C96.0156 222.188 96.3984 221.691 96.6719 221.051C96.9531 220.41 97.0938 219.66 97.0938 218.801V218.789C97.0938 217.93 96.9531 217.184 96.6719 216.551C96.3906 215.91 96.0039 215.418 95.5117 215.074C95.0273 214.723 94.457 214.547 93.8008 214.547C93.1289 214.547 92.5469 214.719 92.0547 215.062C91.5703 215.406 91.1953 215.895 90.9297 216.527C90.6719 217.16 90.543 217.914 90.543 218.789V218.801C90.543 219.676 90.6719 220.434 90.9297 221.074C91.1953 221.715 91.5703 222.207 92.0547 222.551C92.5469 222.887 93.1289 223.055 93.8008 223.055ZM107.043 225.234C105.996 225.234 105.082 224.973 104.301 224.449C103.527 223.926 102.926 223.184 102.496 222.223C102.074 221.254 101.863 220.113 101.863 218.801V218.789C101.863 217.469 102.078 216.328 102.508 215.367C102.938 214.406 103.539 213.668 104.312 213.152C105.086 212.629 105.988 212.367 107.02 212.367C107.895 212.367 108.672 212.574 109.352 212.988C110.031 213.402 110.555 213.965 110.922 214.676H111.004V207.938H113.547V225H111.004V222.926H110.922C110.555 223.645 110.039 224.211 109.375 224.625C108.711 225.031 107.934 225.234 107.043 225.234ZM107.723 223.055C108.379 223.055 108.953 222.883 109.445 222.539C109.938 222.188 110.32 221.691 110.594 221.051C110.875 220.41 111.016 219.66 111.016 218.801V218.789C111.016 217.93 110.875 217.184 110.594 216.551C110.312 215.91 109.926 215.418 109.434 215.074C108.949 214.723 108.379 214.547 107.723 214.547C107.051 214.547 106.469 214.719 105.977 215.062C105.492 215.406 105.117 215.895 104.852 216.527C104.594 217.16 104.465 217.914 104.465 218.789V218.801C104.465 219.676 104.594 220.434 104.852 221.074C105.117 221.715 105.492 222.207 105.977 222.551C106.469 222.887 107.051 223.055 107.723 223.055ZM116.453 225V207.938H118.996V225H116.453ZM127.105 225.246C125.887 225.246 124.84 224.984 123.965 224.461C123.09 223.938 122.418 223.195 121.949 222.234C121.48 221.273 121.246 220.141 121.246 218.836V218.824C121.246 217.535 121.48 216.406 121.949 215.438C122.426 214.461 123.09 213.703 123.941 213.164C124.801 212.625 125.809 212.355 126.965 212.355C128.121 212.355 129.117 212.617 129.953 213.141C130.797 213.656 131.445 214.383 131.898 215.32C132.352 216.25 132.578 217.34 132.578 218.59V219.457H122.523V217.652H131.348L130.094 219.328V218.344C130.094 217.461 129.961 216.734 129.695 216.164C129.43 215.586 129.062 215.156 128.594 214.875C128.133 214.586 127.594 214.441 126.977 214.441C126.367 214.441 125.82 214.59 125.336 214.887C124.859 215.184 124.484 215.625 124.211 216.211C123.938 216.789 123.801 217.5 123.801 218.344V219.328C123.801 220.133 123.938 220.82 124.211 221.391C124.484 221.961 124.871 222.398 125.371 222.703C125.871 223.008 126.465 223.16 127.152 223.16C127.66 223.16 128.105 223.086 128.488 222.938C128.879 222.781 129.199 222.578 129.449 222.328C129.707 222.078 129.887 221.805 129.988 221.508L130.012 221.414H132.449L132.414 221.543C132.312 222.012 132.121 222.469 131.84 222.914C131.566 223.352 131.203 223.75 130.75 224.109C130.297 224.461 129.766 224.738 129.156 224.941C128.547 225.145 127.863 225.246 127.105 225.246ZM134.875 219.293V216.996H142.457V219.293H134.875ZM150.637 225.246C149.434 225.246 148.391 224.984 147.508 224.461C146.625 223.93 145.945 223.184 145.469 222.223C144.992 221.254 144.754 220.109 144.754 218.789V218.777C144.754 217.465 144.996 216.328 145.48 215.367C145.965 214.406 146.645 213.664 147.52 213.141C148.395 212.617 149.426 212.355 150.613 212.355C151.676 212.355 152.59 212.559 153.355 212.965C154.121 213.363 154.723 213.891 155.16 214.547C155.605 215.203 155.867 215.922 155.945 216.703L155.957 216.797H153.531L153.508 216.703C153.375 216.094 153.066 215.574 152.582 215.145C152.105 214.707 151.453 214.488 150.625 214.488C149.969 214.488 149.395 214.664 148.902 215.016C148.41 215.359 148.027 215.855 147.754 216.504C147.488 217.145 147.355 217.906 147.355 218.789V218.801C147.355 219.707 147.492 220.484 147.766 221.133C148.039 221.773 148.422 222.266 148.914 222.609C149.406 222.945 149.98 223.113 150.637 223.113C151.426 223.113 152.062 222.914 152.547 222.516C153.031 222.117 153.352 221.582 153.508 220.91L153.531 220.828L155.969 220.816L155.957 220.91C155.855 221.73 155.574 222.469 155.113 223.125C154.652 223.781 154.043 224.301 153.285 224.684C152.527 225.059 151.645 225.246 150.637 225.246ZM158.055 225V207.938H160.598V225H158.055ZM167.02 225.223C166.207 225.223 165.488 225.066 164.863 224.754C164.238 224.441 163.75 224.004 163.398 223.441C163.055 222.879 162.883 222.227 162.883 221.484V221.461C162.883 220.375 163.285 219.516 164.09 218.883C164.895 218.242 166.031 217.879 167.5 217.793L172.164 217.523V219.305L167.84 219.574C167.059 219.621 166.461 219.805 166.047 220.125C165.641 220.438 165.438 220.859 165.438 221.391V221.414C165.438 221.961 165.645 222.395 166.059 222.715C166.48 223.027 167.031 223.184 167.711 223.184C168.312 223.184 168.852 223.062 169.328 222.82C169.805 222.57 170.18 222.234 170.453 221.812C170.727 221.383 170.863 220.902 170.863 220.371V216.633C170.863 215.953 170.648 215.422 170.219 215.039C169.797 214.656 169.188 214.465 168.391 214.465C167.664 214.465 167.078 214.617 166.633 214.922C166.195 215.219 165.918 215.609 165.801 216.094L165.777 216.188H163.375L163.387 216.059C163.457 215.355 163.703 214.727 164.125 214.172C164.547 213.609 165.125 213.168 165.859 212.848C166.602 212.52 167.473 212.355 168.473 212.355C169.488 212.355 170.363 212.523 171.098 212.859C171.84 213.195 172.41 213.672 172.809 214.289C173.207 214.906 173.406 215.633 173.406 216.469V225H170.863V223.09H170.793C170.551 223.52 170.238 223.895 169.855 224.215C169.48 224.535 169.051 224.785 168.566 224.965C168.082 225.137 167.566 225.223 167.02 225.223ZM180.707 225.246C179.676 225.246 178.789 225.09 178.047 224.777C177.305 224.465 176.719 224.027 176.289 223.465C175.867 222.902 175.613 222.25 175.527 221.508L175.516 221.426H178.047L178.059 221.52C178.184 222.066 178.465 222.496 178.902 222.809C179.34 223.121 179.945 223.277 180.719 223.277C181.234 223.277 181.672 223.211 182.031 223.078C182.398 222.945 182.684 222.758 182.887 222.516C183.09 222.266 183.191 221.973 183.191 221.637V221.625C183.191 221.227 183.055 220.902 182.781 220.652C182.516 220.402 182.043 220.195 181.363 220.031L179.348 219.574C178.176 219.301 177.297 218.879 176.711 218.309C176.133 217.738 175.844 217.004 175.844 216.105V216.094C175.844 215.352 176.043 214.703 176.441 214.148C176.848 213.586 177.41 213.148 178.129 212.836C178.855 212.516 179.695 212.355 180.648 212.355C181.617 212.355 182.453 212.52 183.156 212.848C183.867 213.176 184.422 213.617 184.82 214.172C185.219 214.727 185.438 215.355 185.477 216.059L185.488 216.176H183.098L183.086 216.094C183.008 215.57 182.758 215.145 182.336 214.816C181.922 214.488 181.355 214.324 180.637 214.324C180.184 214.324 179.785 214.395 179.441 214.535C179.105 214.668 178.844 214.855 178.656 215.098C178.477 215.34 178.387 215.629 178.387 215.965V215.977C178.387 216.359 178.531 216.684 178.82 216.949C179.109 217.207 179.586 217.414 180.25 217.57L182.266 218.027C183.516 218.316 184.41 218.73 184.949 219.27C185.496 219.801 185.77 220.512 185.77 221.402V221.414C185.77 222.172 185.551 222.84 185.113 223.418C184.676 223.988 184.074 224.438 183.309 224.766C182.551 225.086 181.684 225.246 180.707 225.246ZM192.52 225.246C191.488 225.246 190.602 225.09 189.859 224.777C189.117 224.465 188.531 224.027 188.102 223.465C187.68 222.902 187.426 222.25 187.34 221.508L187.328 221.426H189.859L189.871 221.52C189.996 222.066 190.277 222.496 190.715 222.809C191.152 223.121 191.758 223.277 192.531 223.277C193.047 223.277 193.484 223.211 193.844 223.078C194.211 222.945 194.496 222.758 194.699 222.516C194.902 222.266 195.004 221.973 195.004 221.637V221.625C195.004 221.227 194.867 220.902 194.594 220.652C194.328 220.402 193.855 220.195 193.176 220.031L191.16 219.574C189.988 219.301 189.109 218.879 188.523 218.309C187.945 217.738 187.656 217.004 187.656 216.105V216.094C187.656 215.352 187.855 214.703 188.254 214.148C188.66 213.586 189.223 213.148 189.941 212.836C190.668 212.516 191.508 212.355 192.461 212.355C193.43 212.355 194.266 212.52 194.969 212.848C195.68 213.176 196.234 213.617 196.633 214.172C197.031 214.727 197.25 215.355 197.289 216.059L197.301 216.176H194.91L194.898 216.094C194.82 215.57 194.57 215.145 194.148 214.816C193.734 214.488 193.168 214.324 192.449 214.324C191.996 214.324 191.598 214.395 191.254 214.535C190.918 214.668 190.656 214.855 190.469 215.098C190.289 215.34 190.199 215.629 190.199 215.965V215.977C190.199 216.359 190.344 216.684 190.633 216.949C190.922 217.207 191.398 217.414 192.062 217.57L194.078 218.027C195.328 218.316 196.223 218.73 196.762 219.27C197.309 219.801 197.582 220.512 197.582 221.402V221.414C197.582 222.172 197.363 222.84 196.926 223.418C196.488 223.988 195.887 224.438 195.121 224.766C194.363 225.086 193.496 225.246 192.52 225.246ZM52.1875 257L58.3281 240.09H60.4609V242.926H59.7109L54.9531 257H52.1875ZM55.1641 252.43L55.9258 250.32H63.5781L64.3398 252.43H55.1641ZM64.5391 257L59.793 242.926V240.09H61.1758L67.3047 257H64.5391ZM72.8477 257.246C71.9336 257.246 71.1562 257.062 70.5156 256.695C69.8828 256.32 69.3984 255.789 69.0625 255.102C68.7344 254.406 68.5703 253.582 68.5703 252.629V244.602H71.1133V252.125C71.1133 253.07 71.3281 253.797 71.7578 254.305C72.1875 254.805 72.8477 255.055 73.7383 255.055C74.3477 255.055 74.8711 254.922 75.3086 254.656C75.7539 254.391 76.0938 254.016 76.3281 253.531C76.5703 253.047 76.6914 252.484 76.6914 251.844V244.602H79.2461V257H76.6914V255.137H76.6211C76.293 255.77 75.8125 256.281 75.1797 256.672C74.5547 257.055 73.7773 257.246 72.8477 257.246ZM86.582 257.246C85.5508 257.246 84.6641 257.09 83.9219 256.777C83.1797 256.465 82.5938 256.027 82.1641 255.465C81.7422 254.902 81.4883 254.25 81.4023 253.508L81.3906 253.426H83.9219L83.9336 253.52C84.0586 254.066 84.3398 254.496 84.7773 254.809C85.2148 255.121 85.8203 255.277 86.5938 255.277C87.1094 255.277 87.5469 255.211 87.9062 255.078C88.2734 254.945 88.5586 254.758 88.7617 254.516C88.9648 254.266 89.0664 253.973 89.0664 253.637V253.625C89.0664 253.227 88.9297 252.902 88.6562 252.652C88.3906 252.402 87.918 252.195 87.2383 252.031L85.2227 251.574C84.0508 251.301 83.1719 250.879 82.5859 250.309C82.0078 249.738 81.7188 249.004 81.7188 248.105V248.094C81.7188 247.352 81.918 246.703 82.3164 246.148C82.7227 245.586 83.2852 245.148 84.0039 244.836C84.7305 244.516 85.5703 244.355 86.5234 244.355C87.4922 244.355 88.3281 244.52 89.0312 244.848C89.7422 245.176 90.2969 245.617 90.6953 246.172C91.0938 246.727 91.3125 247.355 91.3516 248.059L91.3633 248.176H88.9727L88.9609 248.094C88.8828 247.57 88.6328 247.145 88.2109 246.816C87.7969 246.488 87.2305 246.324 86.5117 246.324C86.0586 246.324 85.6602 246.395 85.3164 246.535C84.9805 246.668 84.7188 246.855 84.5312 247.098C84.3516 247.34 84.2617 247.629 84.2617 247.965V247.977C84.2617 248.359 84.4062 248.684 84.6953 248.949C84.9844 249.207 85.4609 249.414 86.125 249.57L88.1406 250.027C89.3906 250.316 90.2852 250.73 90.8242 251.27C91.3711 251.801 91.6445 252.512 91.6445 253.402V253.414C91.6445 254.172 91.4258 254.84 90.9883 255.418C90.5508 255.988 89.9492 256.438 89.1836 256.766C88.4258 257.086 87.5586 257.246 86.582 257.246ZM98.207 257.211C96.957 257.211 96.0312 256.938 95.4297 256.391C94.8281 255.844 94.5273 254.957 94.5273 253.73V246.617H92.7227V244.602H94.5273V241.391H97.1289V244.602H99.5195V246.617H97.1289V253.496C97.1289 254.137 97.2656 254.578 97.5391 254.82C97.8125 255.062 98.2266 255.184 98.7812 255.184C98.9297 255.184 99.0625 255.18 99.1797 255.172C99.2969 255.156 99.4102 255.145 99.5195 255.137V257.105C99.3555 257.129 99.1602 257.152 98.9336 257.176C98.707 257.199 98.4648 257.211 98.207 257.211ZM101.746 257V244.602H104.301V246.676H104.383C104.578 245.957 104.93 245.395 105.438 244.988C105.953 244.574 106.578 244.367 107.312 244.367C107.5 244.367 107.676 244.379 107.84 244.402C108.004 244.418 108.137 244.438 108.238 244.461V246.828C108.113 246.781 107.945 246.746 107.734 246.723C107.523 246.691 107.293 246.676 107.043 246.676C106.488 246.676 106.004 246.793 105.59 247.027C105.176 247.262 104.855 247.598 104.629 248.035C104.41 248.473 104.301 248.996 104.301 249.605V257H101.746ZM113.324 257.223C112.512 257.223 111.793 257.066 111.168 256.754C110.543 256.441 110.055 256.004 109.703 255.441C109.359 254.879 109.188 254.227 109.188 253.484V253.461C109.188 252.375 109.59 251.516 110.395 250.883C111.199 250.242 112.336 249.879 113.805 249.793L118.469 249.523V251.305L114.145 251.574C113.363 251.621 112.766 251.805 112.352 252.125C111.945 252.438 111.742 252.859 111.742 253.391V253.414C111.742 253.961 111.949 254.395 112.363 254.715C112.785 255.027 113.336 255.184 114.016 255.184C114.617 255.184 115.156 255.062 115.633 254.82C116.109 254.57 116.484 254.234 116.758 253.812C117.031 253.383 117.168 252.902 117.168 252.371V248.633C117.168 247.953 116.953 247.422 116.523 247.039C116.102 246.656 115.492 246.465 114.695 246.465C113.969 246.465 113.383 246.617 112.938 246.922C112.5 247.219 112.223 247.609 112.105 248.094L112.082 248.188H109.68L109.691 248.059C109.762 247.355 110.008 246.727 110.43 246.172C110.852 245.609 111.43 245.168 112.164 244.848C112.906 244.52 113.777 244.355 114.777 244.355C115.793 244.355 116.668 244.523 117.402 244.859C118.145 245.195 118.715 245.672 119.113 246.289C119.512 246.906 119.711 247.633 119.711 248.469V257H117.168V255.09H117.098C116.855 255.52 116.543 255.895 116.16 256.215C115.785 256.535 115.355 256.785 114.871 256.965C114.387 257.137 113.871 257.223 113.324 257.223ZM122.477 257V239.938H125.02V257H122.477ZM127.926 257V244.602H130.48V257H127.926ZM129.203 242.633C128.789 242.633 128.434 242.488 128.137 242.199C127.848 241.91 127.703 241.562 127.703 241.156C127.703 240.742 127.848 240.391 128.137 240.102C128.434 239.812 128.789 239.668 129.203 239.668C129.625 239.668 129.98 239.812 130.27 240.102C130.559 240.391 130.703 240.742 130.703 241.156C130.703 241.562 130.559 241.91 130.27 242.199C129.98 242.488 129.625 242.633 129.203 242.633ZM136.879 257.223C136.066 257.223 135.348 257.066 134.723 256.754C134.098 256.441 133.609 256.004 133.258 255.441C132.914 254.879 132.742 254.227 132.742 253.484V253.461C132.742 252.375 133.145 251.516 133.949 250.883C134.754 250.242 135.891 249.879 137.359 249.793L142.023 249.523V251.305L137.699 251.574C136.918 251.621 136.32 251.805 135.906 252.125C135.5 252.438 135.297 252.859 135.297 253.391V253.414C135.297 253.961 135.504 254.395 135.918 254.715C136.34 255.027 136.891 255.184 137.57 255.184C138.172 255.184 138.711 255.062 139.188 254.82C139.664 254.57 140.039 254.234 140.312 253.812C140.586 253.383 140.723 252.902 140.723 252.371V248.633C140.723 247.953 140.508 247.422 140.078 247.039C139.656 246.656 139.047 246.465 138.25 246.465C137.523 246.465 136.938 246.617 136.492 246.922C136.055 247.219 135.777 247.609 135.66 248.094L135.637 248.188H133.234L133.246 248.059C133.316 247.355 133.562 246.727 133.984 246.172C134.406 245.609 134.984 245.168 135.719 244.848C136.461 244.52 137.332 244.355 138.332 244.355C139.348 244.355 140.223 244.523 140.957 244.859C141.699 245.195 142.27 245.672 142.668 246.289C143.066 246.906 143.266 247.633 143.266 248.469V257H140.723V255.09H140.652C140.41 255.52 140.098 255.895 139.715 256.215C139.34 256.535 138.91 256.785 138.426 256.965C137.941 257.137 137.426 257.223 136.879 257.223ZM145.926 257V244.602H148.48V246.477H148.562C148.883 245.836 149.355 245.324 149.98 244.941C150.613 244.551 151.395 244.355 152.324 244.355C153.691 244.355 154.746 244.766 155.488 245.586C156.238 246.406 156.613 247.535 156.613 248.973V257H154.059V249.477C154.059 248.523 153.84 247.797 153.402 247.297C152.965 246.797 152.305 246.547 151.422 246.547C150.828 246.547 150.309 246.68 149.863 246.945C149.426 247.211 149.086 247.586 148.844 248.07C148.602 248.547 148.48 249.109 148.48 249.758V257H145.926ZM163.879 257.246C162.848 257.246 161.961 257.09 161.219 256.777C160.477 256.465 159.891 256.027 159.461 255.465C159.039 254.902 158.785 254.25 158.699 253.508L158.688 253.426H161.219L161.23 253.52C161.355 254.066 161.637 254.496 162.074 254.809C162.512 255.121 163.117 255.277 163.891 255.277C164.406 255.277 164.844 255.211 165.203 255.078C165.57 254.945 165.855 254.758 166.059 254.516C166.262 254.266 166.363 253.973 166.363 253.637V253.625C166.363 253.227 166.227 252.902 165.953 252.652C165.688 252.402 165.215 252.195 164.535 252.031L162.52 251.574C161.348 251.301 160.469 250.879 159.883 250.309C159.305 249.738 159.016 249.004 159.016 248.105V248.094C159.016 247.352 159.215 246.703 159.613 246.148C160.02 245.586 160.582 245.148 161.301 244.836C162.027 244.516 162.867 244.355 163.82 244.355C164.789 244.355 165.625 244.52 166.328 244.848C167.039 245.176 167.594 245.617 167.992 246.172C168.391 246.727 168.609 247.355 168.648 248.059L168.66 248.176H166.27L166.258 248.094C166.18 247.57 165.93 247.145 165.508 246.816C165.094 246.488 164.527 246.324 163.809 246.324C163.355 246.324 162.957 246.395 162.613 246.535C162.277 246.668 162.016 246.855 161.828 247.098C161.648 247.34 161.559 247.629 161.559 247.965V247.977C161.559 248.359 161.703 248.684 161.992 248.949C162.281 249.207 162.758 249.414 163.422 249.57L165.438 250.027C166.688 250.316 167.582 250.73 168.121 251.27C168.668 251.801 168.941 252.512 168.941 253.402V253.414C168.941 254.172 168.723 254.84 168.285 255.418C167.848 255.988 167.246 256.438 166.48 256.766C165.723 257.086 164.855 257.246 163.879 257.246ZM179.887 257.223C179.074 257.223 178.355 257.066 177.73 256.754C177.105 256.441 176.617 256.004 176.266 255.441C175.922 254.879 175.75 254.227 175.75 253.484V253.461C175.75 252.375 176.152 251.516 176.957 250.883C177.762 250.242 178.898 249.879 180.367 249.793L185.031 249.523V251.305L180.707 251.574C179.926 251.621 179.328 251.805 178.914 252.125C178.508 252.438 178.305 252.859 178.305 253.391V253.414C178.305 253.961 178.512 254.395 178.926 254.715C179.348 255.027 179.898 255.184 180.578 255.184C181.18 255.184 181.719 255.062 182.195 254.82C182.672 254.57 183.047 254.234 183.32 253.812C183.594 253.383 183.73 252.902 183.73 252.371V248.633C183.73 247.953 183.516 247.422 183.086 247.039C182.664 246.656 182.055 246.465 181.258 246.465C180.531 246.465 179.945 246.617 179.5 246.922C179.062 247.219 178.785 247.609 178.668 248.094L178.645 248.188H176.242L176.254 248.059C176.324 247.355 176.57 246.727 176.992 246.172C177.414 245.609 177.992 245.168 178.727 244.848C179.469 244.52 180.34 244.355 181.34 244.355C182.355 244.355 183.23 244.523 183.965 244.859C184.707 245.195 185.277 245.672 185.676 246.289C186.074 246.906 186.273 247.633 186.273 248.469V257H183.73V255.09H183.66C183.418 255.52 183.105 255.895 182.723 256.215C182.348 256.535 181.918 256.785 181.434 256.965C180.949 257.137 180.434 257.223 179.887 257.223ZM188.934 257V244.602H191.488V246.676H191.57C191.766 245.957 192.117 245.395 192.625 244.988C193.141 244.574 193.766 244.367 194.5 244.367C194.688 244.367 194.863 244.379 195.027 244.402C195.191 244.418 195.324 244.438 195.426 244.461V246.828C195.301 246.781 195.133 246.746 194.922 246.723C194.711 246.691 194.48 246.676 194.23 246.676C193.676 246.676 193.191 246.793 192.777 247.027C192.363 247.262 192.043 247.598 191.816 248.035C191.598 248.473 191.488 248.996 191.488 249.605V257H188.934ZM201.941 257.246C200.723 257.246 199.676 256.984 198.801 256.461C197.926 255.938 197.254 255.195 196.785 254.234C196.316 253.273 196.082 252.141 196.082 250.836V250.824C196.082 249.535 196.316 248.406 196.785 247.438C197.262 246.461 197.926 245.703 198.777 245.164C199.637 244.625 200.645 244.355 201.801 244.355C202.957 244.355 203.953 244.617 204.789 245.141C205.633 245.656 206.281 246.383 206.734 247.32C207.188 248.25 207.414 249.34 207.414 250.59V251.457H197.359V249.652H206.184L204.93 251.328V250.344C204.93 249.461 204.797 248.734 204.531 248.164C204.266 247.586 203.898 247.156 203.43 246.875C202.969 246.586 202.43 246.441 201.812 246.441C201.203 246.441 200.656 246.59 200.172 246.887C199.695 247.184 199.32 247.625 199.047 248.211C198.773 248.789 198.637 249.5 198.637 250.344V251.328C198.637 252.133 198.773 252.82 199.047 253.391C199.32 253.961 199.707 254.398 200.207 254.703C200.707 255.008 201.301 255.16 201.988 255.16C202.496 255.16 202.941 255.086 203.324 254.938C203.715 254.781 204.035 254.578 204.285 254.328C204.543 254.078 204.723 253.805 204.824 253.508L204.848 253.414H207.285L207.25 253.543C207.148 254.012 206.957 254.469 206.676 254.914C206.402 255.352 206.039 255.75 205.586 256.109C205.133 256.461 204.602 256.738 203.992 256.941C203.383 257.145 202.699 257.246 201.941 257.246ZM51.3203 289V271.938H53.8633V278.617H53.9453C54.2734 277.898 54.7578 277.344 55.3984 276.953C56.0391 276.555 56.8203 276.355 57.7422 276.355C58.6406 276.355 59.4141 276.559 60.0625 276.965C60.7188 277.371 61.2266 277.941 61.5859 278.676C61.9453 279.41 62.125 280.273 62.125 281.266V289H59.582V281.77C59.582 280.746 59.3398 279.953 58.8555 279.391C58.3711 278.828 57.6836 278.547 56.793 278.547C56.207 278.547 55.6914 278.684 55.2461 278.957C54.8086 279.23 54.4688 279.609 54.2266 280.094C53.9844 280.578 53.8633 281.148 53.8633 281.805V289H51.3203ZM70.0938 289.246C68.9062 289.246 67.8711 288.988 66.9883 288.473C66.1055 287.949 65.418 287.207 64.9258 286.246C64.4414 285.277 64.1992 284.129 64.1992 282.801V282.777C64.1992 281.457 64.4414 280.316 64.9258 279.355C65.418 278.395 66.1055 277.656 66.9883 277.141C67.8711 276.617 68.9023 276.355 70.082 276.355C71.2695 276.355 72.3047 276.617 73.1875 277.141C74.0703 277.656 74.7539 278.395 75.2383 279.355C75.7305 280.309 75.9766 281.449 75.9766 282.777V282.801C75.9766 284.137 75.7305 285.285 75.2383 286.246C74.7539 287.207 74.0703 287.949 73.1875 288.473C72.3125 288.988 71.2812 289.246 70.0938 289.246ZM70.1055 287.113C70.7773 287.113 71.3555 286.945 71.8398 286.609C72.332 286.266 72.7109 285.773 72.9766 285.133C73.2422 284.492 73.375 283.715 73.375 282.801V282.777C73.375 281.871 73.2383 281.098 72.9648 280.457C72.6992 279.816 72.3203 279.328 71.8281 278.992C71.3359 278.656 70.7539 278.488 70.082 278.488C69.4258 278.488 68.8477 278.66 68.3477 279.004C67.8555 279.34 67.4727 279.828 67.1992 280.469C66.9336 281.102 66.8008 281.871 66.8008 282.777V282.801C66.8008 283.715 66.9336 284.492 67.1992 285.133C67.4727 285.773 67.8555 286.266 68.3477 286.609C68.8398 286.945 69.4258 287.113 70.1055 287.113ZM78.1211 293.125V276.602H80.6758V278.699H80.7578C81 278.207 81.3086 277.789 81.6836 277.445C82.0664 277.102 82.5039 276.836 82.9961 276.648C83.4961 276.461 84.0391 276.367 84.625 276.367C85.6719 276.367 86.582 276.629 87.3555 277.152C88.1367 277.676 88.7383 278.418 89.1602 279.379C89.5898 280.34 89.8047 281.48 89.8047 282.801V282.812C89.8047 284.125 89.5898 285.262 89.1602 286.223C88.7383 287.184 88.1406 287.926 87.3672 288.449C86.6016 288.973 85.6953 289.234 84.6484 289.234C84.0703 289.234 83.5273 289.145 83.0195 288.965C82.5195 288.777 82.0781 288.512 81.6953 288.168C81.3125 287.824 81 287.414 80.7578 286.938H80.6758V293.125H78.1211ZM83.9453 287.055C84.6172 287.055 85.1953 286.883 85.6797 286.539C86.1719 286.195 86.5469 285.707 86.8047 285.074C87.0703 284.434 87.2031 283.68 87.2031 282.812V282.801C87.2031 281.918 87.0703 281.16 86.8047 280.527C86.5469 279.887 86.1719 279.398 85.6797 279.062C85.1953 278.719 84.6172 278.547 83.9453 278.547C83.2969 278.547 82.7227 278.723 82.2227 279.074C81.7305 279.418 81.3438 279.91 81.0625 280.551C80.7891 281.184 80.6523 281.934 80.6523 282.801V282.812C80.6523 283.672 80.793 284.422 81.0742 285.062C81.3555 285.695 81.7422 286.188 82.2344 286.539C82.7266 286.883 83.2969 287.055 83.9453 287.055ZM92.043 289V276.602H94.5977V289H92.043ZM93.3203 274.633C92.9062 274.633 92.5508 274.488 92.2539 274.199C91.9648 273.91 91.8203 273.562 91.8203 273.156C91.8203 272.742 91.9648 272.391 92.2539 272.102C92.5508 271.812 92.9062 271.668 93.3203 271.668C93.7422 271.668 94.0977 271.812 94.3867 272.102C94.6758 272.391 94.8203 272.742 94.8203 273.156C94.8203 273.562 94.6758 273.91 94.3867 274.199C94.0977 274.488 93.7422 274.633 93.3203 274.633ZM97.3867 289V276.602H99.9414V278.477H100.023C100.344 277.836 100.816 277.324 101.441 276.941C102.074 276.551 102.855 276.355 103.785 276.355C105.152 276.355 106.207 276.766 106.949 277.586C107.699 278.406 108.074 279.535 108.074 280.973V289H105.52V281.477C105.52 280.523 105.301 279.797 104.863 279.297C104.426 278.797 103.766 278.547 102.883 278.547C102.289 278.547 101.77 278.68 101.324 278.945C100.887 279.211 100.547 279.586 100.305 280.07C100.062 280.547 99.9414 281.109 99.9414 281.758V289H97.3867ZM116.113 293.371C115.059 293.371 114.137 293.223 113.348 292.926C112.559 292.629 111.926 292.223 111.449 291.707C110.98 291.199 110.688 290.625 110.57 289.984L110.559 289.891H113.09L113.125 289.973C113.281 290.371 113.617 290.695 114.133 290.945C114.648 291.203 115.309 291.332 116.113 291.332C117.121 291.332 117.898 291.082 118.445 290.582C119 290.09 119.277 289.414 119.277 288.555V286.715H119.195C118.953 287.168 118.641 287.559 118.258 287.887C117.875 288.207 117.434 288.457 116.934 288.637C116.441 288.809 115.898 288.895 115.305 288.895C114.266 288.895 113.355 288.641 112.574 288.133C111.801 287.617 111.199 286.891 110.77 285.953C110.348 285.016 110.137 283.918 110.137 282.66V282.648C110.137 281.367 110.352 280.258 110.781 279.32C111.219 278.383 111.824 277.656 112.598 277.141C113.379 276.625 114.297 276.367 115.352 276.367C115.938 276.367 116.473 276.465 116.957 276.66C117.449 276.848 117.883 277.117 118.258 277.469C118.641 277.82 118.953 278.23 119.195 278.699H119.266V276.602H121.82V288.672C121.82 289.617 121.586 290.441 121.117 291.145C120.656 291.848 120 292.395 119.148 292.785C118.297 293.176 117.285 293.371 116.113 293.371ZM116.02 286.82C116.676 286.82 117.246 286.652 117.73 286.316C118.223 285.973 118.605 285.488 118.879 284.863C119.152 284.238 119.289 283.512 119.289 282.684V282.672C119.289 281.836 119.152 281.109 118.879 280.492C118.605 279.875 118.223 279.398 117.73 279.062C117.246 278.719 116.676 278.547 116.02 278.547C115.348 278.547 114.766 278.715 114.273 279.051C113.781 279.387 113.402 279.863 113.137 280.48C112.871 281.098 112.738 281.824 112.738 282.66V282.684C112.738 283.527 112.867 284.262 113.125 284.887C113.391 285.504 113.77 285.98 114.262 286.316C114.762 286.652 115.348 286.82 116.02 286.82ZM134.137 289.211C132.887 289.211 131.961 288.938 131.359 288.391C130.758 287.844 130.457 286.957 130.457 285.73V278.617H128.652V276.602H130.457V273.391H133.059V276.602H135.449V278.617H133.059V285.496C133.059 286.137 133.195 286.578 133.469 286.82C133.742 287.062 134.156 287.184 134.711 287.184C134.859 287.184 134.992 287.18 135.109 287.172C135.227 287.156 135.34 287.145 135.449 287.137V289.105C135.285 289.129 135.09 289.152 134.863 289.176C134.637 289.199 134.395 289.211 134.137 289.211ZM142.75 289.246C141.562 289.246 140.527 288.988 139.645 288.473C138.762 287.949 138.074 287.207 137.582 286.246C137.098 285.277 136.855 284.129 136.855 282.801V282.777C136.855 281.457 137.098 280.316 137.582 279.355C138.074 278.395 138.762 277.656 139.645 277.141C140.527 276.617 141.559 276.355 142.738 276.355C143.926 276.355 144.961 276.617 145.844 277.141C146.727 277.656 147.41 278.395 147.895 279.355C148.387 280.309 148.633 281.449 148.633 282.777V282.801C148.633 284.137 148.387 285.285 147.895 286.246C147.41 287.207 146.727 287.949 145.844 288.473C144.969 288.988 143.938 289.246 142.75 289.246ZM142.762 287.113C143.434 287.113 144.012 286.945 144.496 286.609C144.988 286.266 145.367 285.773 145.633 285.133C145.898 284.492 146.031 283.715 146.031 282.801V282.777C146.031 281.871 145.895 281.098 145.621 280.457C145.355 279.816 144.977 279.328 144.484 278.992C143.992 278.656 143.41 278.488 142.738 278.488C142.082 278.488 141.504 278.66 141.004 279.004C140.512 279.34 140.129 279.828 139.855 280.469C139.59 281.102 139.457 281.871 139.457 282.777V282.801C139.457 283.715 139.59 284.492 139.855 285.133C140.129 285.773 140.512 286.266 141.004 286.609C141.496 286.945 142.082 287.113 142.762 287.113ZM160.598 289.246C159.566 289.246 158.68 289.09 157.938 288.777C157.195 288.465 156.609 288.027 156.18 287.465C155.758 286.902 155.504 286.25 155.418 285.508L155.406 285.426H157.938L157.949 285.52C158.074 286.066 158.355 286.496 158.793 286.809C159.23 287.121 159.836 287.277 160.609 287.277C161.125 287.277 161.562 287.211 161.922 287.078C162.289 286.945 162.574 286.758 162.777 286.516C162.98 286.266 163.082 285.973 163.082 285.637V285.625C163.082 285.227 162.945 284.902 162.672 284.652C162.406 284.402 161.934 284.195 161.254 284.031L159.238 283.574C158.066 283.301 157.188 282.879 156.602 282.309C156.023 281.738 155.734 281.004 155.734 280.105V280.094C155.734 279.352 155.934 278.703 156.332 278.148C156.738 277.586 157.301 277.148 158.02 276.836C158.746 276.516 159.586 276.355 160.539 276.355C161.508 276.355 162.344 276.52 163.047 276.848C163.758 277.176 164.312 277.617 164.711 278.172C165.109 278.727 165.328 279.355 165.367 280.059L165.379 280.176H162.988L162.977 280.094C162.898 279.57 162.648 279.145 162.227 278.816C161.812 278.488 161.246 278.324 160.527 278.324C160.074 278.324 159.676 278.395 159.332 278.535C158.996 278.668 158.734 278.855 158.547 279.098C158.367 279.34 158.277 279.629 158.277 279.965V279.977C158.277 280.359 158.422 280.684 158.711 280.949C159 281.207 159.477 281.414 160.141 281.57L162.156 282.027C163.406 282.316 164.301 282.73 164.84 283.27C165.387 283.801 165.66 284.512 165.66 285.402V285.414C165.66 286.172 165.441 286.84 165.004 287.418C164.566 287.988 163.965 288.438 163.199 288.766C162.441 289.086 161.574 289.246 160.598 289.246ZM173.113 289.246C171.895 289.246 170.848 288.984 169.973 288.461C169.098 287.938 168.426 287.195 167.957 286.234C167.488 285.273 167.254 284.141 167.254 282.836V282.824C167.254 281.535 167.488 280.406 167.957 279.438C168.434 278.461 169.098 277.703 169.949 277.164C170.809 276.625 171.816 276.355 172.973 276.355C174.129 276.355 175.125 276.617 175.961 277.141C176.805 277.656 177.453 278.383 177.906 279.32C178.359 280.25 178.586 281.34 178.586 282.59V283.457H168.531V281.652H177.355L176.102 283.328V282.344C176.102 281.461 175.969 280.734 175.703 280.164C175.438 279.586 175.07 279.156 174.602 278.875C174.141 278.586 173.602 278.441 172.984 278.441C172.375 278.441 171.828 278.59 171.344 278.887C170.867 279.184 170.492 279.625 170.219 280.211C169.945 280.789 169.809 281.5 169.809 282.344V283.328C169.809 284.133 169.945 284.82 170.219 285.391C170.492 285.961 170.879 286.398 171.379 286.703C171.879 287.008 172.473 287.16 173.16 287.16C173.668 287.16 174.113 287.086 174.496 286.938C174.887 286.781 175.207 286.578 175.457 286.328C175.715 286.078 175.895 285.805 175.996 285.508L176.02 285.414H178.457L178.422 285.543C178.32 286.012 178.129 286.469 177.848 286.914C177.574 287.352 177.211 287.75 176.758 288.109C176.305 288.461 175.773 288.738 175.164 288.941C174.555 289.145 173.871 289.246 173.113 289.246ZM186.027 289.246C184.809 289.246 183.762 288.984 182.887 288.461C182.012 287.938 181.34 287.195 180.871 286.234C180.402 285.273 180.168 284.141 180.168 282.836V282.824C180.168 281.535 180.402 280.406 180.871 279.438C181.348 278.461 182.012 277.703 182.863 277.164C183.723 276.625 184.73 276.355 185.887 276.355C187.043 276.355 188.039 276.617 188.875 277.141C189.719 277.656 190.367 278.383 190.82 279.32C191.273 280.25 191.5 281.34 191.5 282.59V283.457H181.445V281.652H190.27L189.016 283.328V282.344C189.016 281.461 188.883 280.734 188.617 280.164C188.352 279.586 187.984 279.156 187.516 278.875C187.055 278.586 186.516 278.441 185.898 278.441C185.289 278.441 184.742 278.59 184.258 278.887C183.781 279.184 183.406 279.625 183.133 280.211C182.859 280.789 182.723 281.5 182.723 282.344V283.328C182.723 284.133 182.859 284.82 183.133 285.391C183.406 285.961 183.793 286.398 184.293 286.703C184.793 287.008 185.387 287.16 186.074 287.16C186.582 287.16 187.027 287.086 187.41 286.938C187.801 286.781 188.121 286.578 188.371 286.328C188.629 286.078 188.809 285.805 188.91 285.508L188.934 285.414H191.371L191.336 285.543C191.234 286.012 191.043 286.469 190.762 286.914C190.488 287.352 190.125 287.75 189.672 288.109C189.219 288.461 188.688 288.738 188.078 288.941C187.469 289.145 186.785 289.246 186.027 289.246ZM202.434 289.223C201.621 289.223 200.902 289.066 200.277 288.754C199.652 288.441 199.164 288.004 198.812 287.441C198.469 286.879 198.297 286.227 198.297 285.484V285.461C198.297 284.375 198.699 283.516 199.504 282.883C200.309 282.242 201.445 281.879 202.914 281.793L207.578 281.523V283.305L203.254 283.574C202.473 283.621 201.875 283.805 201.461 284.125C201.055 284.438 200.852 284.859 200.852 285.391V285.414C200.852 285.961 201.059 286.395 201.473 286.715C201.895 287.027 202.445 287.184 203.125 287.184C203.727 287.184 204.266 287.062 204.742 286.82C205.219 286.57 205.594 286.234 205.867 285.812C206.141 285.383 206.277 284.902 206.277 284.371V280.633C206.277 279.953 206.062 279.422 205.633 279.039C205.211 278.656 204.602 278.465 203.805 278.465C203.078 278.465 202.492 278.617 202.047 278.922C201.609 279.219 201.332 279.609 201.215 280.094L201.191 280.188H198.789L198.801 280.059C198.871 279.355 199.117 278.727 199.539 278.172C199.961 277.609 200.539 277.168 201.273 276.848C202.016 276.52 202.887 276.355 203.887 276.355C204.902 276.355 205.777 276.523 206.512 276.859C207.254 277.195 207.824 277.672 208.223 278.289C208.621 278.906 208.82 279.633 208.82 280.469V289H206.277V287.09H206.207C205.965 287.52 205.652 287.895 205.27 288.215C204.895 288.535 204.465 288.785 203.98 288.965C203.496 289.137 202.98 289.223 202.434 289.223ZM39.9883 325.125V308.602H42.543V310.699H42.625C42.8672 310.207 43.1758 309.789 43.5508 309.445C43.9336 309.102 44.3711 308.836 44.8633 308.648C45.3633 308.461 45.9062 308.367 46.4922 308.367C47.5391 308.367 48.4492 308.629 49.2227 309.152C50.0039 309.676 50.6055 310.418 51.0273 311.379C51.457 312.34 51.6719 313.48 51.6719 314.801V314.812C51.6719 316.125 51.457 317.262 51.0273 318.223C50.6055 319.184 50.0078 319.926 49.2344 320.449C48.4688 320.973 47.5625 321.234 46.5156 321.234C45.9375 321.234 45.3945 321.145 44.8867 320.965C44.3867 320.777 43.9453 320.512 43.5625 320.168C43.1797 319.824 42.8672 319.414 42.625 318.938H42.543V325.125H39.9883ZM45.8125 319.055C46.4844 319.055 47.0625 318.883 47.5469 318.539C48.0391 318.195 48.4141 317.707 48.6719 317.074C48.9375 316.434 49.0703 315.68 49.0703 314.812V314.801C49.0703 313.918 48.9375 313.16 48.6719 312.527C48.4141 311.887 48.0391 311.398 47.5469 311.062C47.0625 310.719 46.4844 310.547 45.8125 310.547C45.1641 310.547 44.5898 310.723 44.0898 311.074C43.5977 311.418 43.2109 311.91 42.9297 312.551C42.6562 313.184 42.5195 313.934 42.5195 314.801V314.812C42.5195 315.672 42.6602 316.422 42.9414 317.062C43.2227 317.695 43.6094 318.188 44.1016 318.539C44.5938 318.883 45.1641 319.055 45.8125 319.055ZM53.8164 321V308.602H56.3711V310.676H56.4531C56.6484 309.957 57 309.395 57.5078 308.988C58.0234 308.574 58.6484 308.367 59.3828 308.367C59.5703 308.367 59.7461 308.379 59.9102 308.402C60.0742 308.418 60.207 308.438 60.3086 308.461V310.828C60.1836 310.781 60.0156 310.746 59.8047 310.723C59.5938 310.691 59.3633 310.676 59.1133 310.676C58.5586 310.676 58.0742 310.793 57.6602 311.027C57.2461 311.262 56.9258 311.598 56.6992 312.035C56.4805 312.473 56.3711 312.996 56.3711 313.605V321H53.8164ZM62.1133 321V308.602H64.668V321H62.1133ZM63.3906 306.633C62.9766 306.633 62.6211 306.488 62.3242 306.199C62.0352 305.91 61.8906 305.562 61.8906 305.156C61.8906 304.742 62.0352 304.391 62.3242 304.102C62.6211 303.812 62.9766 303.668 63.3906 303.668C63.8125 303.668 64.168 303.812 64.457 304.102C64.7461 304.391 64.8906 304.742 64.8906 305.156C64.8906 305.562 64.7461 305.91 64.457 306.199C64.168 306.488 63.8125 306.633 63.3906 306.633ZM72.7773 321.246C71.5742 321.246 70.5312 320.984 69.6484 320.461C68.7656 319.93 68.0859 319.184 67.6094 318.223C67.1328 317.254 66.8945 316.109 66.8945 314.789V314.777C66.8945 313.465 67.1367 312.328 67.6211 311.367C68.1055 310.406 68.7852 309.664 69.6602 309.141C70.5352 308.617 71.5664 308.355 72.7539 308.355C73.8164 308.355 74.7305 308.559 75.4961 308.965C76.2617 309.363 76.8633 309.891 77.3008 310.547C77.7461 311.203 78.0078 311.922 78.0859 312.703L78.0977 312.797H75.6719L75.6484 312.703C75.5156 312.094 75.207 311.574 74.7227 311.145C74.2461 310.707 73.5938 310.488 72.7656 310.488C72.1094 310.488 71.5352 310.664 71.043 311.016C70.5508 311.359 70.168 311.855 69.8945 312.504C69.6289 313.145 69.4961 313.906 69.4961 314.789V314.801C69.4961 315.707 69.6328 316.484 69.9062 317.133C70.1797 317.773 70.5625 318.266 71.0547 318.609C71.5469 318.945 72.1211 319.113 72.7773 319.113C73.5664 319.113 74.2031 318.914 74.6875 318.516C75.1719 318.117 75.4922 317.582 75.6484 316.91L75.6719 316.828L78.1094 316.816L78.0977 316.91C77.9961 317.73 77.7148 318.469 77.2539 319.125C76.793 319.781 76.1836 320.301 75.4258 320.684C74.668 321.059 73.7852 321.246 72.7773 321.246ZM85.3867 321.246C84.168 321.246 83.1211 320.984 82.2461 320.461C81.3711 319.938 80.6992 319.195 80.2305 318.234C79.7617 317.273 79.5273 316.141 79.5273 314.836V314.824C79.5273 313.535 79.7617 312.406 80.2305 311.438C80.707 310.461 81.3711 309.703 82.2227 309.164C83.082 308.625 84.0898 308.355 85.2461 308.355C86.4023 308.355 87.3984 308.617 88.2344 309.141C89.0781 309.656 89.7266 310.383 90.1797 311.32C90.6328 312.25 90.8594 313.34 90.8594 314.59V315.457H80.8047V313.652H89.6289L88.375 315.328V314.344C88.375 313.461 88.2422 312.734 87.9766 312.164C87.7109 311.586 87.3438 311.156 86.875 310.875C86.4141 310.586 85.875 310.441 85.2578 310.441C84.6484 310.441 84.1016 310.59 83.6172 310.887C83.1406 311.184 82.7656 311.625 82.4922 312.211C82.2188 312.789 82.082 313.5 82.082 314.344V315.328C82.082 316.133 82.2188 316.82 82.4922 317.391C82.7656 317.961 83.1523 318.398 83.6523 318.703C84.1523 319.008 84.7461 319.16 85.4336 319.16C85.9414 319.16 86.3867 319.086 86.7695 318.938C87.1602 318.781 87.4805 318.578 87.7305 318.328C87.9883 318.078 88.168 317.805 88.2695 317.508L88.293 317.414H90.7305L90.6953 317.543C90.5938 318.012 90.4023 318.469 90.1211 318.914C89.8477 319.352 89.4844 319.75 89.0312 320.109C88.5781 320.461 88.0469 320.738 87.4375 320.941C86.8281 321.145 86.1445 321.246 85.3867 321.246ZM98.1836 321V308.602H100.738V310.676H100.82C101.016 309.957 101.367 309.395 101.875 308.988C102.391 308.574 103.016 308.367 103.75 308.367C103.938 308.367 104.113 308.379 104.277 308.402C104.441 308.418 104.574 308.438 104.676 308.461V310.828C104.551 310.781 104.383 310.746 104.172 310.723C103.961 310.691 103.73 310.676 103.48 310.676C102.926 310.676 102.441 310.793 102.027 311.027C101.613 311.262 101.293 311.598 101.066 312.035C100.848 312.473 100.738 312.996 100.738 313.605V321H98.1836ZM111.191 321.246C109.973 321.246 108.926 320.984 108.051 320.461C107.176 319.938 106.504 319.195 106.035 318.234C105.566 317.273 105.332 316.141 105.332 314.836V314.824C105.332 313.535 105.566 312.406 106.035 311.438C106.512 310.461 107.176 309.703 108.027 309.164C108.887 308.625 109.895 308.355 111.051 308.355C112.207 308.355 113.203 308.617 114.039 309.141C114.883 309.656 115.531 310.383 115.984 311.32C116.438 312.25 116.664 313.34 116.664 314.59V315.457H106.609V313.652H115.434L114.18 315.328V314.344C114.18 313.461 114.047 312.734 113.781 312.164C113.516 311.586 113.148 311.156 112.68 310.875C112.219 310.586 111.68 310.441 111.062 310.441C110.453 310.441 109.906 310.59 109.422 310.887C108.945 311.184 108.57 311.625 108.297 312.211C108.023 312.789 107.887 313.5 107.887 314.344V315.328C107.887 316.133 108.023 316.82 108.297 317.391C108.57 317.961 108.957 318.398 109.457 318.703C109.957 319.008 110.551 319.16 111.238 319.16C111.746 319.16 112.191 319.086 112.574 318.938C112.965 318.781 113.285 318.578 113.535 318.328C113.793 318.078 113.973 317.805 114.074 317.508L114.098 317.414H116.535L116.5 317.543C116.398 318.012 116.207 318.469 115.926 318.914C115.652 319.352 115.289 319.75 114.836 320.109C114.383 320.461 113.852 320.738 113.242 320.941C112.633 321.145 111.949 321.246 111.191 321.246ZM123.426 321.234C122.379 321.234 121.465 320.973 120.684 320.449C119.91 319.926 119.309 319.184 118.879 318.223C118.457 317.254 118.246 316.113 118.246 314.801V314.789C118.246 313.469 118.461 312.328 118.891 311.367C119.32 310.406 119.922 309.668 120.695 309.152C121.469 308.629 122.371 308.367 123.402 308.367C124.277 308.367 125.055 308.574 125.734 308.988C126.414 309.402 126.938 309.965 127.305 310.676H127.387V303.938H129.93V321H127.387V318.926H127.305C126.938 319.645 126.422 320.211 125.758 320.625C125.094 321.031 124.316 321.234 123.426 321.234ZM124.105 319.055C124.762 319.055 125.336 318.883 125.828 318.539C126.32 318.188 126.703 317.691 126.977 317.051C127.258 316.41 127.398 315.66 127.398 314.801V314.789C127.398 313.93 127.258 313.184 126.977 312.551C126.695 311.91 126.309 311.418 125.816 311.074C125.332 310.723 124.762 310.547 124.105 310.547C123.434 310.547 122.852 310.719 122.359 311.062C121.875 311.406 121.5 311.895 121.234 312.527C120.977 313.16 120.848 313.914 120.848 314.789V314.801C120.848 315.676 120.977 316.434 121.234 317.074C121.5 317.715 121.875 318.207 122.359 318.551C122.852 318.887 123.434 319.055 124.105 319.055ZM136.949 321.246C136.035 321.246 135.258 321.062 134.617 320.695C133.984 320.32 133.5 319.789 133.164 319.102C132.836 318.406 132.672 317.582 132.672 316.629V308.602H135.215V316.125C135.215 317.07 135.43 317.797 135.859 318.305C136.289 318.805 136.949 319.055 137.84 319.055C138.449 319.055 138.973 318.922 139.41 318.656C139.855 318.391 140.195 318.016 140.43 317.531C140.672 317.047 140.793 316.484 140.793 315.844V308.602H143.348V321H140.793V319.137H140.723C140.395 319.77 139.914 320.281 139.281 320.672C138.656 321.055 137.879 321.246 136.949 321.246ZM151.363 321.246C150.16 321.246 149.117 320.984 148.234 320.461C147.352 319.93 146.672 319.184 146.195 318.223C145.719 317.254 145.48 316.109 145.48 314.789V314.777C145.48 313.465 145.723 312.328 146.207 311.367C146.691 310.406 147.371 309.664 148.246 309.141C149.121 308.617 150.152 308.355 151.34 308.355C152.402 308.355 153.316 308.559 154.082 308.965C154.848 309.363 155.449 309.891 155.887 310.547C156.332 311.203 156.594 311.922 156.672 312.703L156.684 312.797H154.258L154.234 312.703C154.102 312.094 153.793 311.574 153.309 311.145C152.832 310.707 152.18 310.488 151.352 310.488C150.695 310.488 150.121 310.664 149.629 311.016C149.137 311.359 148.754 311.855 148.48 312.504C148.215 313.145 148.082 313.906 148.082 314.789V314.801C148.082 315.707 148.219 316.484 148.492 317.133C148.766 317.773 149.148 318.266 149.641 318.609C150.133 318.945 150.707 319.113 151.363 319.113C152.152 319.113 152.789 318.914 153.273 318.516C153.758 318.117 154.078 317.582 154.234 316.91L154.258 316.828L156.695 316.816L156.684 316.91C156.582 317.73 156.301 318.469 155.84 319.125C155.379 319.781 154.77 320.301 154.012 320.684C153.254 321.059 152.371 321.246 151.363 321.246ZM163.129 321.211C161.879 321.211 160.953 320.938 160.352 320.391C159.75 319.844 159.449 318.957 159.449 317.73V310.617H157.645V308.602H159.449V305.391H162.051V308.602H164.441V310.617H162.051V317.496C162.051 318.137 162.188 318.578 162.461 318.82C162.734 319.062 163.148 319.184 163.703 319.184C163.852 319.184 163.984 319.18 164.102 319.172C164.219 319.156 164.332 319.145 164.441 319.137V321.105C164.277 321.129 164.082 321.152 163.855 321.176C163.629 321.199 163.387 321.211 163.129 321.211ZM166.762 321V308.602H169.316V321H166.762ZM168.039 306.633C167.625 306.633 167.27 306.488 166.973 306.199C166.684 305.91 166.539 305.562 166.539 305.156C166.539 304.742 166.684 304.391 166.973 304.102C167.27 303.812 167.625 303.668 168.039 303.668C168.461 303.668 168.816 303.812 169.105 304.102C169.395 304.391 169.539 304.742 169.539 305.156C169.539 305.562 169.395 305.91 169.105 306.199C168.816 306.488 168.461 306.633 168.039 306.633ZM177.438 321.246C176.25 321.246 175.215 320.988 174.332 320.473C173.449 319.949 172.762 319.207 172.27 318.246C171.785 317.277 171.543 316.129 171.543 314.801V314.777C171.543 313.457 171.785 312.316 172.27 311.355C172.762 310.395 173.449 309.656 174.332 309.141C175.215 308.617 176.246 308.355 177.426 308.355C178.613 308.355 179.648 308.617 180.531 309.141C181.414 309.656 182.098 310.395 182.582 311.355C183.074 312.309 183.32 313.449 183.32 314.777V314.801C183.32 316.137 183.074 317.285 182.582 318.246C182.098 319.207 181.414 319.949 180.531 320.473C179.656 320.988 178.625 321.246 177.438 321.246ZM177.449 319.113C178.121 319.113 178.699 318.945 179.184 318.609C179.676 318.266 180.055 317.773 180.32 317.133C180.586 316.492 180.719 315.715 180.719 314.801V314.777C180.719 313.871 180.582 313.098 180.309 312.457C180.043 311.816 179.664 311.328 179.172 310.992C178.68 310.656 178.098 310.488 177.426 310.488C176.77 310.488 176.191 310.66 175.691 311.004C175.199 311.34 174.816 311.828 174.543 312.469C174.277 313.102 174.145 313.871 174.145 314.777V314.801C174.145 315.715 174.277 316.492 174.543 317.133C174.816 317.773 175.199 318.266 175.691 318.609C176.184 318.945 176.77 319.113 177.449 319.113ZM185.465 321V308.602H188.02V310.477H188.102C188.422 309.836 188.895 309.324 189.52 308.941C190.152 308.551 190.934 308.355 191.863 308.355C193.23 308.355 194.285 308.766 195.027 309.586C195.777 310.406 196.152 311.535 196.152 312.973V321H193.598V313.477C193.598 312.523 193.379 311.797 192.941 311.297C192.504 310.797 191.844 310.547 190.961 310.547C190.367 310.547 189.848 310.68 189.402 310.945C188.965 311.211 188.625 311.586 188.383 312.07C188.141 312.547 188.02 313.109 188.02 313.758V321H185.465ZM204.051 321V308.602H206.605V321H204.051ZM205.328 306.633C204.914 306.633 204.559 306.488 204.262 306.199C203.973 305.91 203.828 305.562 203.828 305.156C203.828 304.742 203.973 304.391 204.262 304.102C204.559 303.812 204.914 303.668 205.328 303.668C205.75 303.668 206.105 303.812 206.395 304.102C206.684 304.391 206.828 304.742 206.828 305.156C206.828 305.562 206.684 305.91 206.395 306.199C206.105 306.488 205.75 306.633 205.328 306.633ZM209.395 321V308.602H211.949V310.477H212.031C212.352 309.836 212.824 309.324 213.449 308.941C214.082 308.551 214.863 308.355 215.793 308.355C217.16 308.355 218.215 308.766 218.957 309.586C219.707 310.406 220.082 311.535 220.082 312.973V321H217.527V313.477C217.527 312.523 217.309 311.797 216.871 311.297C216.434 310.797 215.773 310.547 214.891 310.547C214.297 310.547 213.777 310.68 213.332 310.945C212.895 311.211 212.555 311.586 212.312 312.07C212.07 312.547 211.949 313.109 211.949 313.758V321H209.395ZM90.1562 353.305C88.5547 353.305 87.1641 352.949 85.9844 352.238C84.8047 351.52 83.8906 350.5 83.2422 349.18C82.6016 347.859 82.2812 346.293 82.2812 344.48V344.469C82.2812 342.688 82.6016 341.148 83.2422 339.852C83.8906 338.555 84.8008 337.555 85.9727 336.852C87.1523 336.141 88.5391 335.785 90.1328 335.785C91.4453 335.785 92.5938 336.02 93.5781 336.488C94.5703 336.949 95.3789 337.582 96.0039 338.387C96.6367 339.191 97.0664 340.109 97.293 341.141L97.3281 341.328H94.6445L94.5977 341.211C94.2539 340.227 93.7031 339.465 92.9453 338.926C92.1875 338.387 91.25 338.117 90.1328 338.117C89.0703 338.117 88.1523 338.371 87.3789 338.879C86.6055 339.379 86.0078 340.105 85.5859 341.059C85.1719 342.004 84.9648 343.137 84.9648 344.457V344.469C84.9648 345.812 85.1758 346.973 85.5977 347.949C86.0273 348.926 86.6328 349.676 87.4141 350.199C88.1953 350.715 89.1172 350.973 90.1797 350.973C91.1016 350.973 91.9102 350.793 92.6055 350.434C93.3086 350.074 93.8555 349.574 94.2461 348.934C94.6367 348.285 94.8398 347.531 94.8555 346.672V346.379H90.4375V344.234H97.457V346.039C97.457 347.547 97.1641 348.844 96.5781 349.93C95.9922 351.016 95.1562 351.852 94.0703 352.438C92.9844 353.016 91.6797 353.305 90.1562 353.305ZM101.523 347.223V345.02H105.906C107.047 345.02 107.93 344.727 108.555 344.141C109.18 343.547 109.492 342.727 109.492 341.68V341.656C109.492 340.594 109.18 339.77 108.555 339.184C107.93 338.598 107.047 338.305 105.906 338.305H101.523V336.09H106.562C107.672 336.09 108.645 336.324 109.48 336.793C110.324 337.254 110.984 337.902 111.461 338.738C111.938 339.566 112.176 340.531 112.176 341.633V341.656C112.176 342.758 111.938 343.73 111.461 344.574C110.984 345.41 110.324 346.062 109.48 346.531C108.645 346.992 107.672 347.223 106.562 347.223H101.523ZM100.199 353V336.09H102.836V353H100.199ZM122.945 353L118.48 340.602H121.188L124.293 350.504H124.375L127.469 340.602H130.129L125.688 353H122.945ZM131.863 353V340.602H134.418V353H131.863ZM133.141 338.633C132.727 338.633 132.371 338.488 132.074 338.199C131.785 337.91 131.641 337.562 131.641 337.156C131.641 336.742 131.785 336.391 132.074 336.102C132.371 335.812 132.727 335.668 133.141 335.668C133.562 335.668 133.918 335.812 134.207 336.102C134.496 336.391 134.641 336.742 134.641 337.156C134.641 337.562 134.496 337.91 134.207 338.199C133.918 338.488 133.562 338.633 133.141 338.633ZM141.848 353.246C140.816 353.246 139.93 353.09 139.188 352.777C138.445 352.465 137.859 352.027 137.43 351.465C137.008 350.902 136.754 350.25 136.668 349.508L136.656 349.426H139.188L139.199 349.52C139.324 350.066 139.605 350.496 140.043 350.809C140.48 351.121 141.086 351.277 141.859 351.277C142.375 351.277 142.812 351.211 143.172 351.078C143.539 350.945 143.824 350.758 144.027 350.516C144.23 350.266 144.332 349.973 144.332 349.637V349.625C144.332 349.227 144.195 348.902 143.922 348.652C143.656 348.402 143.184 348.195 142.504 348.031L140.488 347.574C139.316 347.301 138.438 346.879 137.852 346.309C137.273 345.738 136.984 345.004 136.984 344.105V344.094C136.984 343.352 137.184 342.703 137.582 342.148C137.988 341.586 138.551 341.148 139.27 340.836C139.996 340.516 140.836 340.355 141.789 340.355C142.758 340.355 143.594 340.52 144.297 340.848C145.008 341.176 145.562 341.617 145.961 342.172C146.359 342.727 146.578 343.355 146.617 344.059L146.629 344.176H144.238L144.227 344.094C144.148 343.57 143.898 343.145 143.477 342.816C143.062 342.488 142.496 342.324 141.777 342.324C141.324 342.324 140.926 342.395 140.582 342.535C140.246 342.668 139.984 342.855 139.797 343.098C139.617 343.34 139.527 343.629 139.527 343.965V343.977C139.527 344.359 139.672 344.684 139.961 344.949C140.25 345.207 140.727 345.414 141.391 345.57L143.406 346.027C144.656 346.316 145.551 346.73 146.09 347.27C146.637 347.801 146.91 348.512 146.91 349.402V349.414C146.91 350.172 146.691 350.84 146.254 351.418C145.816 351.988 145.215 352.438 144.449 352.766C143.691 353.086 142.824 353.246 141.848 353.246ZM149.16 353V340.602H151.715V353H149.16ZM150.438 338.633C150.023 338.633 149.668 338.488 149.371 338.199C149.082 337.91 148.938 337.562 148.938 337.156C148.938 336.742 149.082 336.391 149.371 336.102C149.668 335.812 150.023 335.668 150.438 335.668C150.859 335.668 151.215 335.812 151.504 336.102C151.793 336.391 151.938 336.742 151.938 337.156C151.938 337.562 151.793 337.91 151.504 338.199C151.215 338.488 150.859 338.633 150.438 338.633ZM158.934 353.211C157.684 353.211 156.758 352.938 156.156 352.391C155.555 351.844 155.254 350.957 155.254 349.73V342.617H153.449V340.602H155.254V337.391H157.855V340.602H160.246V342.617H157.855V349.496C157.855 350.137 157.992 350.578 158.266 350.82C158.539 351.062 158.953 351.184 159.508 351.184C159.656 351.184 159.789 351.18 159.906 351.172C160.023 351.156 160.137 351.145 160.246 351.137V353.105C160.082 353.129 159.887 353.152 159.66 353.176C159.434 353.199 159.191 353.211 158.934 353.211ZM167.09 353.246C166.059 353.246 165.172 353.09 164.43 352.777C163.688 352.465 163.102 352.027 162.672 351.465C162.25 350.902 161.996 350.25 161.91 349.508L161.898 349.426H164.43L164.441 349.52C164.566 350.066 164.848 350.496 165.285 350.809C165.723 351.121 166.328 351.277 167.102 351.277C167.617 351.277 168.055 351.211 168.414 351.078C168.781 350.945 169.066 350.758 169.27 350.516C169.473 350.266 169.574 349.973 169.574 349.637V349.625C169.574 349.227 169.438 348.902 169.164 348.652C168.898 348.402 168.426 348.195 167.746 348.031L165.73 347.574C164.559 347.301 163.68 346.879 163.094 346.309C162.516 345.738 162.227 345.004 162.227 344.105V344.094C162.227 343.352 162.426 342.703 162.824 342.148C163.23 341.586 163.793 341.148 164.512 340.836C165.238 340.516 166.078 340.355 167.031 340.355C168 340.355 168.836 340.52 169.539 340.848C170.25 341.176 170.805 341.617 171.203 342.172C171.602 342.727 171.82 343.355 171.859 344.059L171.871 344.176H169.48L169.469 344.094C169.391 343.57 169.141 343.145 168.719 342.816C168.305 342.488 167.738 342.324 167.02 342.324C166.566 342.324 166.168 342.395 165.824 342.535C165.488 342.668 165.227 342.855 165.039 343.098C164.859 343.34 164.77 343.629 164.77 343.965V343.977C164.77 344.359 164.914 344.684 165.203 344.949C165.492 345.207 165.969 345.414 166.633 345.57L168.648 346.027C169.898 346.316 170.793 346.73 171.332 347.27C171.879 347.801 172.152 348.512 172.152 349.402V349.414C172.152 350.172 171.934 350.84 171.496 351.418C171.059 351.988 170.457 352.438 169.691 352.766C168.934 353.086 168.066 353.246 167.09 353.246ZM175.855 353.176C175.41 353.176 175.035 353.023 174.73 352.719C174.426 352.414 174.273 352.043 174.273 351.605C174.273 351.168 174.426 350.797 174.73 350.492C175.035 350.188 175.41 350.035 175.855 350.035C176.293 350.035 176.664 350.188 176.969 350.492C177.273 350.797 177.426 351.168 177.426 351.605C177.426 352.043 177.273 352.414 176.969 352.719C176.664 353.023 176.293 353.176 175.855 353.176Z" fill="#0A0E02"/>
</svg>
