<svg width="193" height="46" viewBox="0 0 193 46" fill="none" xmlns="http://www.w3.org/2000/svg">
<rect width="193" height="46" fill="#C5C5C5"/>
<g id="Medlink Brand">
<path d="M-481 -610C-481 -611.104 -480.105 -612 -479 -612H19941C19942.1 -612 19943 -611.105 19943 -610V8537C19943 8538.1 19942.1 8539 19941 8539H-479C-480.104 8539 -481 8538.1 -481 8537V-610Z" fill="#D7D4D4"/>
<path d="M-479 -611H19941V-613H-479V-611ZM19942 -610V8537H19944V-610H19942ZM19941 8538H-479V8540H19941V8538ZM-480 8537V-610H-482V8537H-480ZM-479 8538C-479.552 8538 -480 8537.55 -480 8537H-482C-482 8538.66 -480.657 8540 -479 8540V8538ZM19942 8537C19942 8537.55 19941.6 8538 19941 8538V8540C19942.7 8540 19944 8538.66 19944 8537H19942ZM19941 -611C19941.6 -611 19942 -610.552 19942 -610H19944C19944 -611.657 19942.7 -613 19941 -613V-611ZM-479 -613C-480.657 -613 -482 -611.657 -482 -610H-480C-480 -610.552 -479.552 -611 -479 -611V-613Z" fill="black" fill-opacity="0.1"/>
<g id="Frame 24" clip-path="url(#clip0_891_2271)">
<rect width="1920" height="1080" transform="translate(-127 -36)" fill="white"/>
<g id="Logo Light">
<g id="Group 48">
<ellipse id="Ellipse 6" cx="44.2048" cy="4.85629" rx="4.57909" ry="4.85629" fill="#0A0E02"/>
<ellipse id="Ellipse 7" cx="23.6584" cy="8.40121" rx="4.57909" ry="4.85629" fill="#0A0E02"/>
<g id="Group 47">
<path id="Line 4" d="M41.1645 33.2997C41.1645 33.2997 21.1521 -6.02747 3.95447 40.4164" stroke="#0A0E02" stroke-width="6.10646" stroke-linecap="round"/>
<path id="Line 5" d="M62.9553 38.9219C62.9553 38.9219 45.4141 -14.1104 26.4225 34.5449" stroke="#0A0E02" stroke-width="6.10646" stroke-linecap="round"/>
<path id="Line 6" d="M26.6741 33.879C26.6741 33.879 22.2711 42.8445 34.2472 42.2841C46.2233 41.7238 40.7636 32.3848 40.7636 32.3848" stroke="#0A0E02" stroke-width="6.10646" stroke-linecap="round"/>
</g>
</g>
<g id="Group 1">
<path id="Ellipse 3" d="M139.346 15.4077C139.346 17.2186 137.878 18.6866 136.067 18.6866C134.256 18.6866 132.788 17.2186 132.788 15.4077C132.788 13.5969 134.256 12.1289 136.067 12.1289C137.878 12.1289 139.346 13.5969 139.346 15.4077Z" fill="#0A0E02"/>
<g id="medlink">
<path id="Vector" d="M172.135 13.3203H176.744V28.8152L185.339 20.8938H192.393L182.786 29.6216L193 39.5509H186.087L179.251 32.8312L176.744 35.108V39.5509H172.135V13.3203Z" fill="#0A0E02"/>
<path id="Vector_2" d="M144.712 21.3954H149.383V22.9342C150.625 22.2469 151.808 21.7647 152.934 21.4877C154.07 21.2108 155.18 21.0723 156.263 21.0723C157.684 21.0723 158.999 21.2774 160.209 21.6878C161.418 22.0879 162.465 22.688 163.349 23.4881C164.233 24.2883 164.922 25.2885 165.416 26.4887C165.921 27.6787 166.174 29.0585 166.174 30.628V39.5529H161.518V31.3667C161.518 30.3716 161.371 29.4842 161.076 28.7046C160.792 27.9147 160.377 27.253 159.83 26.7196C159.293 26.1759 158.636 25.7655 157.857 25.4885C157.089 25.2013 156.227 25.0577 155.269 25.0577C154.764 25.0577 154.244 25.109 153.707 25.2116C153.181 25.3142 152.66 25.4629 152.145 25.6578C151.64 25.8425 151.151 26.0784 150.677 26.3656C150.204 26.6426 149.772 26.9606 149.383 27.3197V39.5529H144.712V21.3954Z" fill="#0A0E02"/>
<path id="Vector_3" d="M134.066 21.2733H138.65V39.5505H134.066V21.2733Z" fill="#0A0E02"/>
<path id="Vector_4" d="M123.25 13.3203H128.019V39.5509H123.25V13.3203Z" fill="#0A0E02"/>
<path id="Vector_5" d="M94.635 30.4703C94.635 28.9693 94.9129 27.6173 95.4688 26.4143C96.0246 25.2007 96.7903 24.1681 97.7656 23.3165C98.7515 22.4542 99.9156 21.7942 101.258 21.3364C102.611 20.868 104.074 20.6338 105.647 20.6338C106.318 20.6338 106.979 20.6764 107.629 20.7615C108.29 20.8467 108.919 20.9638 109.517 21.1129C110.126 21.2619 110.692 21.4429 111.216 21.6558C111.751 21.858 112.223 22.0816 112.632 22.3264V13.3203H117.289V39.8118H112.632V38.0393C112.223 38.3267 111.741 38.5982 111.185 38.8537C110.629 39.1091 110.031 39.3327 109.391 39.5243C108.752 39.7159 108.086 39.865 107.393 39.9714C106.712 40.0885 106.035 40.1471 105.364 40.1471C103.791 40.1471 102.344 39.9129 101.022 39.4445C99.7111 38.9761 98.5837 38.3161 97.6398 37.4644C96.6959 36.6128 95.9565 35.5961 95.4216 34.4145C94.8972 33.2222 94.635 31.9074 94.635 30.4703ZM99.5276 30.4703C99.5276 31.2261 99.6744 31.9394 99.9681 32.61C100.272 33.2807 100.702 33.8715 101.258 34.3825C101.824 34.8829 102.501 35.2821 103.287 35.5802C104.085 35.8676 104.976 36.0113 105.962 36.0113C106.591 36.0113 107.22 35.9527 107.85 35.8356C108.479 35.7079 109.082 35.5322 109.659 35.3087C110.246 35.0851 110.792 34.8137 111.295 34.4943C111.809 34.1749 112.255 33.8183 112.632 33.4244V26.8934C112.16 26.5101 111.662 26.1855 111.138 25.9193C110.613 25.6532 110.078 25.4349 109.533 25.2646C108.988 25.0943 108.437 24.9719 107.881 24.8973C107.325 24.8122 106.785 24.7696 106.261 24.7696C105.191 24.7696 104.237 24.9186 103.398 25.2167C102.569 25.5041 101.866 25.9033 101.29 26.4143C100.723 26.9253 100.288 27.5268 99.9838 28.2188C99.6797 28.9107 99.5276 29.6612 99.5276 30.4703Z" fill="#0A0E02"/>
<path id="Vector_6" d="M67.8091 30.5482C67.8091 29.2993 68.0712 28.1077 68.5953 26.9733C69.1195 25.8285 69.8736 24.8189 70.8577 23.9447C71.8418 23.0705 73.0453 22.3732 74.4679 21.8528C75.9013 21.3325 77.5273 21.0723 79.3458 21.0723C81.1536 21.0723 82.7795 21.3377 84.2236 21.8684C85.6784 22.3888 86.9085 23.1069 87.914 24.0228C88.9303 24.9386 89.7058 26.0158 90.2406 27.2543C90.7862 28.4928 91.059 29.8197 91.059 31.2351C91.059 31.412 91.0536 31.6046 91.0429 31.8127C91.0429 32.0105 91.0322 32.1926 91.0108 32.3591H73.1041C73.3073 32.9107 73.6336 33.4155 74.0829 33.8734C74.5428 34.3313 75.1151 34.7268 75.7997 35.0599C76.4843 35.3929 77.2759 35.6531 78.1744 35.8404C79.073 36.0173 80.0678 36.1058 81.1589 36.1058C82.25 36.1058 83.3357 35.9965 84.4161 35.778C85.4965 35.549 86.5288 35.2628 87.5129 34.9194L89.1175 38.4475C88.497 38.7285 87.8659 38.9783 87.2241 39.1968C86.593 39.405 85.9298 39.5819 85.2345 39.7276C84.5498 39.8629 83.8278 39.967 83.0683 40.0398C82.3195 40.1127 81.528 40.1491 80.6936 40.1491C78.5649 40.1491 76.6983 39.8993 75.0937 39.3997C73.4892 38.9002 72.1467 38.2185 71.0663 37.3547C69.9859 36.4909 69.1729 35.4761 68.6274 34.3105C68.0819 33.1449 67.8091 31.8908 67.8091 30.5482ZM86.0207 28.7529C85.8495 28.243 85.5821 27.7694 85.2184 27.3323C84.8654 26.8848 84.4215 26.4997 83.8866 26.1771C83.3518 25.8441 82.7314 25.5839 82.0254 25.3966C81.3194 25.2092 80.5438 25.1156 79.6988 25.1156C78.8002 25.1156 77.9819 25.2144 77.2438 25.4122C76.5057 25.6099 75.8586 25.8753 75.3023 26.2083C74.7461 26.5414 74.2808 26.9264 73.9064 27.3636C73.5427 27.8007 73.2752 28.2638 73.1041 28.7529H86.0207Z" fill="#0A0E02"/>
</g>
</g>
</g>
</g>
</g>
<defs>
<clipPath id="clip0_891_2271">
<rect width="1920" height="1080" fill="white" transform="translate(-127 -36)"/>
</clipPath>
</defs>
</svg>
