<svg width="410" height="371" viewBox="0 0 410 371" fill="none" xmlns="http://www.w3.org/2000/svg">
<path opacity="0.4" fill-rule="evenodd" clip-rule="evenodd" d="M576.17 175.589C576.178 175.598 576.185 175.607 553.334 193.65L576.185 175.607C586.149 188.22 583.997 206.522 571.376 216.487C558.759 226.45 540.456 224.307 530.49 211.701C530.49 211.701 530.49 211.701 530.49 211.701C530.488 211.699 530.486 211.697 530.484 211.694C530.484 211.694 530.484 211.693 530.483 211.693L530.466 211.671L530.33 211.5C530.201 211.338 529.994 211.08 529.712 210.731C529.149 210.032 528.287 208.969 527.145 207.583C524.861 204.81 521.463 200.748 517.11 195.719C508.389 185.645 495.9 171.769 480.896 156.637C450.393 125.874 411.442 91.9222 373.754 72.9667C335.468 53.7104 308.894 54.3287 289.96 72.2494C279.999 81.6769 269.501 97.932 260.741 125.05C278.398 133.806 294.454 143.661 307.954 152.792C323.306 163.174 336.067 173.115 345.02 180.483C345.408 180.802 345.789 181.117 346.163 181.427C348.12 182.405 349.997 183.621 351.753 185.077L351.239 185.696C351.243 185.7 351.247 185.703 351.251 185.707C351.768 185.09 351.772 185.093 351.775 185.096L351.799 185.116L351.854 185.161L351.984 185.271L352.332 185.567C352.602 185.798 352.945 186.096 353.354 186.458C354.17 187.183 355.253 188.171 356.535 189.401C359.082 191.848 362.492 195.331 366.162 199.679C373.223 208.042 382.581 221.159 387.521 237.465C392.721 254.631 393.03 275.776 380.614 296.551C368.806 316.308 347.712 331.946 318.256 344.254C289.145 356.418 263.837 360.86 242.12 356.672C218.998 352.213 203.706 338.709 194.711 323.346C186.316 309.006 183.675 293.697 182.805 283.369C182.351 277.973 182.332 273.325 182.431 269.951C182.481 268.252 182.562 266.843 182.638 265.787C182.676 265.258 182.713 264.815 182.745 264.465L182.788 264.01L182.806 263.837L182.814 263.763L182.817 263.73C182.817 263.729 182.817 263.728 182.829 263.728C182.829 263.719 182.829 263.71 182.829 263.7L182.821 263.699C182.825 263.661 182.829 263.624 182.833 263.586C184.078 224.407 187.325 190.378 192.403 161.012C188.542 160.041 184.694 159.23 180.873 158.6C165.051 155.991 150.796 156.668 138.289 160.965C126.094 165.155 113.849 173.355 102.505 188.688C78.905 220.587 59.2629 283.44 58.5987 399.634C58.5068 415.708 45.3972 428.668 29.3176 428.581C13.238 428.493 0.277373 415.392 0.369259 399.318C1.05435 279.463 20.8677 201.152 55.6918 154.083C73.5601 129.932 95.2699 114.198 119.379 105.915C143.177 97.7398 167.576 97.4079 190.367 101.166C195.687 102.044 200.978 103.154 206.221 104.463C216.878 72.5303 231.308 47.611 249.932 29.9849C296.141 -13.7501 354.257 -2.00979 399.938 20.9658C446.217 44.2422 490.509 83.6322 522.259 115.653C538.381 131.913 551.77 146.789 561.146 157.62C565.841 163.043 569.546 167.471 572.103 170.575C573.381 172.127 574.374 173.35 575.061 174.202C575.23 174.412 575.38 174.599 575.512 174.763C575.648 174.933 575.764 175.078 575.859 175.197L576.082 175.477L576.148 175.561L576.17 175.589ZM247.71 183.973C244.029 209.349 241.605 239.24 240.791 274.268C240.776 274.921 240.739 275.568 240.682 276.209C240.716 276.925 240.764 277.681 240.83 278.468C241.339 284.513 242.735 290.115 244.97 293.932C246.605 296.726 248.537 298.623 253.167 299.516C259.202 300.68 272.176 300.425 295.812 290.548C319.103 280.816 327.647 271.694 330.628 266.707C332.999 262.739 333.245 259.158 331.79 254.353C330.073 248.688 326.182 242.589 321.657 237.229C321.622 237.188 321.588 237.148 321.554 237.107C320.983 236.65 320.425 236.169 319.881 235.662C319.878 235.66 319.876 235.658 319.874 235.656M319.86 235.643L319.778 235.567C319.727 235.52 319.657 235.456 319.57 235.376C319.485 235.299 319.384 235.207 319.266 235.1C318.785 234.663 318.028 233.981 317.014 233.087C314.983 231.297 311.93 228.66 308.002 225.427C300.125 218.945 288.838 210.153 275.315 201.007C266.673 195.162 257.384 189.357 247.71 183.973" fill="#D3F898"/>
</svg>
